<?xml version="1.0" encoding="UTF-8" standalone="no"?>
<!-- Created with Inkscape (http://www.inkscape.org/) -->

<svg
   width="400"
   height="400"
   viewBox="0 0 105.83333 105.83333"
   version="1.1"
   id="svg1"
   xml:space="preserve"
   inkscape:version="1.4 (e7c3feb100, 2024-10-09)"
   sodipodi:docname="suspend.svg"
   xmlns:inkscape="http://www.inkscape.org/namespaces/inkscape"
   xmlns:sodipodi="http://sodipodi.sourceforge.net/DTD/sodipodi-0.dtd"
   xmlns="http://www.w3.org/2000/svg"
   xmlns:svg="http://www.w3.org/2000/svg"><sodipodi:namedview
     id="namedview1"
     pagecolor="#505050"
     bordercolor="#eeeeee"
     borderopacity="1"
     inkscape:showpageshadow="0"
     inkscape:pageopacity="0"
     inkscape:pagecheckerboard="0"
     inkscape:deskcolor="#505050"
     inkscape:document-units="px"
     inkscape:zoom="0.25564719"
     inkscape:cx="844.91443"
     inkscape:cy="-234.69845"
     inkscape:window-width="1531"
     inkscape:window-height="998"
     inkscape:window-x="0"
     inkscape:window-y="0"
     inkscape:window-maximized="1"
     inkscape:current-layer="layer1"
     showguides="false" /><defs
     id="defs1" /><g
     inkscape:label="Слой 1"
     inkscape:groupmode="layer"
     id="layer1"><g
       id="g28"
       transform="matrix(0.89887289,0,0,0.89887289,-170.32957,296.01438)"><rect
         style="fill:none;fill-opacity:1;stroke:#4d4d4d;stroke-width:2.64583;stroke-linecap:round;stroke-dasharray:none;stroke-opacity:1"
         id="rect17"
         width="144.52922"
         height="121.94654"
         x="176.09779"
         y="-331.42053" /><g
         id="g22"
         transform="translate(12.301087,-574.661)"><rect
           style="fill:none;stroke:#ececec;stroke-width:7.9375;stroke-dasharray:none;stroke-opacity:1"
           id="rect5"
           width="98.74157"
           height="99.294739"
           x="186.69054"
           y="254.56638"
           ry="49.370785" /><g
           id="g21"
           transform="translate(-17.43817,-109.06707)"
           style="fill:#f2f2f2;fill-opacity:1"><path
             style="fill:#f2f2f2;fill-opacity:1;stroke:none;stroke-width:7.67328;stroke-dasharray:none"
             d="m 240.46257,390.12978 c -2.19869,0 -3.96875,2.09069 -3.96875,4.68729 v 36.92751 c 0,2.5966 1.77006,4.68728 3.96875,4.68728 2.19869,0 3.96875,-2.09068 3.96875,-4.68728 v -36.92751 c 0,-2.5966 -1.77006,-4.68729 -3.96875,-4.68729 z"
             id="rect7" /><path
             style="fill:#f2f2f2;fill-opacity:1;stroke:none;stroke-width:7.67328;stroke-dasharray:none"
             d="m 266.53639,390.12978 c -2.19869,0 -3.96875,2.09069 -3.96875,4.68729 v 36.92751 c 0,2.5966 1.77006,4.68728 3.96875,4.68728 2.19869,0 3.96875,-2.09068 3.96875,-4.68728 v -36.92751 c 0,-2.5966 -1.77006,-4.68729 -3.96875,-4.68729 z"
             id="path20" /></g></g></g></g></svg>
